<mxfile host="app.diagrams.net" modified="2022-07-12T08:53:16.684Z" agent="5.0 (Windows NT 10.0; Win64; x64) AppleWebKit/537.36 (KHTML, like Gecko) Chrome/96.0.4664.110 Safari/537.36" etag="_RE7IKMZdf1U-LeLAxd6" version="20.0.1" type="github">
  <diagram id="Dn4ppaplm2SgMrEr9h0z" name="第 1 页">
    <mxGraphModel dx="1038" dy="547" grid="1" gridSize="10" guides="1" tooltips="1" connect="1" arrows="1" fold="1" page="1" pageScale="1" pageWidth="827" pageHeight="1169" math="0" shadow="0">
      <root>
        <mxCell id="0" />
        <mxCell id="1" parent="0" />
        <mxCell id="2AyNaQHOU7hhueHvjuPR-15" style="edgeStyle=orthogonalEdgeStyle;rounded=0;orthogonalLoop=1;jettySize=auto;html=1;exitX=1;exitY=0.5;exitDx=0;exitDy=0;" edge="1" parent="1" source="2AyNaQHOU7hhueHvjuPR-9">
          <mxGeometry relative="1" as="geometry">
            <mxPoint x="670" y="400" as="targetPoint" />
          </mxGeometry>
        </mxCell>
        <mxCell id="2AyNaQHOU7hhueHvjuPR-9" value="" style="rounded=0;whiteSpace=wrap;html=1;fillColor=none;dashed=1;" vertex="1" parent="1">
          <mxGeometry x="150" y="140" width="340" height="520" as="geometry" />
        </mxCell>
        <mxCell id="2AyNaQHOU7hhueHvjuPR-5" style="rounded=0;orthogonalLoop=1;jettySize=auto;html=1;" edge="1" parent="1" source="2AyNaQHOU7hhueHvjuPR-1" target="2AyNaQHOU7hhueHvjuPR-2">
          <mxGeometry relative="1" as="geometry">
            <mxPoint x="422" y="440" as="sourcePoint" />
          </mxGeometry>
        </mxCell>
        <mxCell id="2AyNaQHOU7hhueHvjuPR-6" style="edgeStyle=none;rounded=0;orthogonalLoop=1;jettySize=auto;html=1;" edge="1" parent="1" source="2AyNaQHOU7hhueHvjuPR-1" target="2AyNaQHOU7hhueHvjuPR-3">
          <mxGeometry relative="1" as="geometry" />
        </mxCell>
        <mxCell id="2AyNaQHOU7hhueHvjuPR-7" style="edgeStyle=none;rounded=0;orthogonalLoop=1;jettySize=auto;html=1;" edge="1" parent="1" source="2AyNaQHOU7hhueHvjuPR-1" target="2AyNaQHOU7hhueHvjuPR-4">
          <mxGeometry relative="1" as="geometry" />
        </mxCell>
        <mxCell id="2AyNaQHOU7hhueHvjuPR-1" value="&lt;b&gt;Jenkins Master&lt;/b&gt;" style="aspect=fixed;html=1;points=[];align=center;image;fontSize=12;image=img/lib/azure2/azure_stack/Capacity.svg;" vertex="1" parent="1">
          <mxGeometry x="392" y="350" width="63" height="68" as="geometry" />
        </mxCell>
        <mxCell id="2AyNaQHOU7hhueHvjuPR-2" value="&lt;b&gt;Jenkins Slave&lt;/b&gt;" style="aspect=fixed;html=1;points=[];align=center;image;fontSize=12;image=img/lib/azure2/azure_stack/Capacity.svg;" vertex="1" parent="1">
          <mxGeometry x="200" y="160" width="63" height="68" as="geometry" />
        </mxCell>
        <mxCell id="2AyNaQHOU7hhueHvjuPR-3" value="&lt;b&gt;Jenkins Slave&lt;/b&gt;" style="aspect=fixed;html=1;points=[];align=center;image;fontSize=12;image=img/lib/azure2/azure_stack/Capacity.svg;" vertex="1" parent="1">
          <mxGeometry x="200" y="350" width="63" height="68" as="geometry" />
        </mxCell>
        <mxCell id="2AyNaQHOU7hhueHvjuPR-4" value="&lt;b&gt;Jenkins Slave&lt;/b&gt;" style="aspect=fixed;html=1;points=[];align=center;image;fontSize=12;image=img/lib/azure2/azure_stack/Capacity.svg;" vertex="1" parent="1">
          <mxGeometry x="200" y="530" width="63" height="68" as="geometry" />
        </mxCell>
        <mxCell id="2AyNaQHOU7hhueHvjuPR-14" style="edgeStyle=orthogonalEdgeStyle;rounded=0;orthogonalLoop=1;jettySize=auto;html=1;" edge="1" parent="1" source="2AyNaQHOU7hhueHvjuPR-10" target="2AyNaQHOU7hhueHvjuPR-12">
          <mxGeometry relative="1" as="geometry" />
        </mxCell>
        <mxCell id="2AyNaQHOU7hhueHvjuPR-10" value="&lt;b&gt;Java&amp;nbsp; GRPC服务&lt;/b&gt;" style="aspect=fixed;html=1;points=[];align=center;image;fontSize=12;image=img/lib/azure2/app_services/App_Service_Plans.svg;dashed=1;fillColor=none;" vertex="1" parent="1">
          <mxGeometry x="672" y="363" width="64" height="64" as="geometry" />
        </mxCell>
        <mxCell id="2AyNaQHOU7hhueHvjuPR-12" value="&lt;b&gt;.net GRPC服务&lt;/b&gt;" style="aspect=fixed;html=1;points=[];align=center;image;fontSize=12;image=img/lib/azure2/app_services/App_Service_Plans.svg;dashed=1;fillColor=none;" vertex="1" parent="1">
          <mxGeometry x="672" y="150" width="64" height="64" as="geometry" />
        </mxCell>
      </root>
    </mxGraphModel>
  </diagram>
</mxfile>
